<svg xmlns="http://www.w3.org/2000/svg" xmlns:xlink="http://www.w3.org/1999/xlink" width="500" zoomAndPan="magnify" viewBox="0 0 375 374.999991" height="500" preserveAspectRatio="xMidYMid meet" version="1.0"><defs><g/></defs><g fill="#ffffff" fill-opacity="1"><g transform="translate(139.820793, 248.60307)"><g><path d="M 12.34375 -8.109375 C 12.34375 -7.390625 12.148438 -6.738281 11.765625 -6.15625 C 11.378906 -5.582031 10.820312 -5.160156 10.09375 -4.890625 L 12.6875 0 L 8.46875 0 L 6.40625 -4.265625 L 5.015625 -4.265625 L 5.015625 0 L 1.25 0 L 1.25 -11.6875 L 8.40625 -11.6875 C 9.25 -11.6875 9.96875 -11.523438 10.5625 -11.203125 C 11.15625 -10.878906 11.597656 -10.441406 11.890625 -9.890625 C 12.191406 -9.335938 12.34375 -8.742188 12.34375 -8.109375 Z M 8.53125 -7.953125 C 8.53125 -8.253906 8.425781 -8.503906 8.21875 -8.703125 C 8.019531 -8.910156 7.769531 -9.015625 7.46875 -9.015625 L 5.015625 -9.015625 L 5.015625 -6.859375 L 7.46875 -6.859375 C 7.769531 -6.859375 8.019531 -6.960938 8.21875 -7.171875 C 8.425781 -7.378906 8.53125 -7.640625 8.53125 -7.953125 Z M 8.53125 -7.953125 "/></g></g></g><g fill="#ffffff" fill-opacity="1"><g transform="translate(153.033568, 248.60307)"><g><path d="M 1.25 -11.6875 L 11.359375 -11.6875 L 11.359375 -8.890625 L 5.015625 -8.890625 L 5.015625 -7.265625 L 10.453125 -7.265625 L 10.453125 -4.578125 L 5.015625 -4.578125 L 5.015625 -2.796875 L 11.484375 -2.796875 L 11.484375 0 L 1.25 0 Z M 1.25 -11.6875 "/></g></g></g><g fill="#ffffff" fill-opacity="1"><g transform="translate(165.295306, 248.60307)"><g><path d="M 6.828125 -11.890625 C 8.554688 -11.890625 9.925781 -11.457031 10.9375 -10.59375 C 11.945312 -9.726562 12.453125 -8.488281 12.453125 -6.875 L 8.859375 -6.875 C 8.859375 -7.550781 8.679688 -8.085938 8.328125 -8.484375 C 7.972656 -8.890625 7.46875 -9.09375 6.8125 -9.09375 C 6.050781 -9.09375 5.492188 -8.851562 5.140625 -8.375 C 4.785156 -7.894531 4.609375 -7.234375 4.609375 -6.390625 L 4.609375 -5.296875 C 4.609375 -4.460938 4.785156 -3.800781 5.140625 -3.3125 C 5.492188 -2.832031 6.039062 -2.59375 6.78125 -2.59375 C 7.5 -2.59375 8.046875 -2.78125 8.421875 -3.15625 C 8.796875 -3.53125 8.984375 -4.054688 8.984375 -4.734375 L 12.453125 -4.734375 C 12.453125 -3.140625 11.960938 -1.914062 10.984375 -1.0625 C 10.003906 -0.21875 8.617188 0.203125 6.828125 0.203125 C 4.835938 0.203125 3.328125 -0.304688 2.296875 -1.328125 C 1.273438 -2.347656 0.765625 -3.851562 0.765625 -5.84375 C 0.765625 -7.832031 1.273438 -9.335938 2.296875 -10.359375 C 3.328125 -11.378906 4.835938 -11.890625 6.828125 -11.890625 Z M 6.828125 -11.890625 "/></g></g></g><g fill="#ffffff" fill-opacity="1"><g transform="translate(178.508081, 248.60307)"><g/></g></g><g fill="#ffffff" fill-opacity="1"><g transform="translate(184.16343, 248.60307)"><g><path d="M 5.875 -11.890625 C 6.789062 -11.890625 7.585938 -11.742188 8.265625 -11.453125 C 8.941406 -11.160156 9.460938 -10.75 9.828125 -10.21875 C 10.191406 -9.6875 10.375 -9.070312 10.375 -8.375 C 10.375 -7.71875 10.207031 -7.125 9.875 -6.59375 C 9.550781 -6.0625 9.140625 -5.585938 8.640625 -5.171875 C 8.140625 -4.765625 7.457031 -4.269531 6.59375 -3.6875 C 6.101562 -3.363281 5.707031 -3.09375 5.40625 -2.875 L 10.515625 -2.875 L 10.515625 0 L 0.828125 0 L 0.828125 -0.8125 C 0.828125 -1.414062 0.96875 -1.953125 1.25 -2.421875 C 1.53125 -2.890625 1.9375 -3.363281 2.46875 -3.84375 C 3.007812 -4.3125 3.789062 -4.957031 4.8125 -5.78125 C 5.625 -6.425781 6.191406 -6.914062 6.515625 -7.25 C 6.847656 -7.59375 7.015625 -7.925781 7.015625 -8.25 C 7.015625 -8.601562 6.890625 -8.898438 6.640625 -9.140625 C 6.398438 -9.378906 6.035156 -9.5 5.546875 -9.5 C 5.046875 -9.5 4.644531 -9.347656 4.34375 -9.046875 C 4.050781 -8.753906 3.90625 -8.367188 3.90625 -7.890625 L 3.90625 -7.5625 L 0.890625 -7.5625 C 0.867188 -7.644531 0.859375 -7.769531 0.859375 -7.9375 C 0.859375 -9.15625 1.285156 -10.117188 2.140625 -10.828125 C 3.003906 -11.535156 4.25 -11.890625 5.875 -11.890625 Z M 5.875 -11.890625 "/></g></g></g><g fill="#ffffff" fill-opacity="1"><g transform="translate(195.491103, 248.60307)"><g><path d="M 5.671875 -11.890625 C 7.492188 -11.890625 8.773438 -11.367188 9.515625 -10.328125 C 10.253906 -9.296875 10.625 -7.800781 10.625 -5.84375 C 10.625 -3.882812 10.253906 -2.382812 9.515625 -1.34375 C 8.773438 -0.3125 7.492188 0.203125 5.671875 0.203125 C 3.835938 0.203125 2.550781 -0.3125 1.8125 -1.34375 C 1.070312 -2.382812 0.703125 -3.882812 0.703125 -5.84375 C 0.703125 -7.800781 1.070312 -9.296875 1.8125 -10.328125 C 2.550781 -11.367188 3.835938 -11.890625 5.671875 -11.890625 Z M 5.671875 -9.59375 C 5.085938 -9.59375 4.671875 -9.363281 4.421875 -8.90625 C 4.171875 -8.457031 4.046875 -7.71875 4.046875 -6.6875 L 4.046875 -5.015625 C 4.046875 -3.972656 4.171875 -3.222656 4.421875 -2.765625 C 4.671875 -2.316406 5.085938 -2.09375 5.671875 -2.09375 C 6.265625 -2.09375 6.675781 -2.316406 6.90625 -2.765625 C 7.144531 -3.222656 7.265625 -3.972656 7.265625 -5.015625 L 7.265625 -6.6875 C 7.265625 -7.726562 7.144531 -8.472656 6.90625 -8.921875 C 6.675781 -9.367188 6.265625 -9.59375 5.671875 -9.59375 Z M 5.671875 -9.59375 "/></g></g></g><g fill="#ffffff" fill-opacity="1"><g transform="translate(206.818776, 248.60307)"><g><path d="M 5.875 -11.890625 C 6.789062 -11.890625 7.585938 -11.742188 8.265625 -11.453125 C 8.941406 -11.160156 9.460938 -10.75 9.828125 -10.21875 C 10.191406 -9.6875 10.375 -9.070312 10.375 -8.375 C 10.375 -7.71875 10.207031 -7.125 9.875 -6.59375 C 9.550781 -6.0625 9.140625 -5.585938 8.640625 -5.171875 C 8.140625 -4.765625 7.457031 -4.269531 6.59375 -3.6875 C 6.101562 -3.363281 5.707031 -3.09375 5.40625 -2.875 L 10.515625 -2.875 L 10.515625 0 L 0.828125 0 L 0.828125 -0.8125 C 0.828125 -1.414062 0.96875 -1.953125 1.25 -2.421875 C 1.53125 -2.890625 1.9375 -3.363281 2.46875 -3.84375 C 3.007812 -4.3125 3.789062 -4.957031 4.8125 -5.78125 C 5.625 -6.425781 6.191406 -6.914062 6.515625 -7.25 C 6.847656 -7.59375 7.015625 -7.925781 7.015625 -8.25 C 7.015625 -8.601562 6.890625 -8.898438 6.640625 -9.140625 C 6.398438 -9.378906 6.035156 -9.5 5.546875 -9.5 C 5.046875 -9.5 4.644531 -9.347656 4.34375 -9.046875 C 4.050781 -8.753906 3.90625 -8.367188 3.90625 -7.890625 L 3.90625 -7.5625 L 0.890625 -7.5625 C 0.867188 -7.644531 0.859375 -7.769531 0.859375 -7.9375 C 0.859375 -9.15625 1.285156 -10.117188 2.140625 -10.828125 C 3.003906 -11.535156 4.25 -11.890625 5.875 -11.890625 Z M 5.875 -11.890625 "/></g></g></g><g fill="#ffffff" fill-opacity="1"><g transform="translate(218.146449, 248.60307)"><g><path d="M 6.984375 -11.890625 C 6.898438 -11.296875 6.625 -10.5625 6.15625 -9.6875 C 5.695312 -8.8125 5.144531 -7.929688 4.5 -7.046875 C 3.863281 -6.171875 3.269531 -5.453125 2.71875 -4.890625 L 6.078125 -4.890625 L 6.078125 -7.3125 C 6.429688 -7.8125 6.785156 -8.398438 7.140625 -9.078125 C 7.503906 -9.765625 7.742188 -10.328125 7.859375 -10.765625 L 9.3125 -10.765625 L 9.3125 -4.890625 L 10.9375 -4.890625 L 10.9375 -2.390625 L 9.3125 -2.390625 L 9.3125 0 L 6.078125 0 L 6.078125 -2.390625 L 0.390625 -2.390625 L 0.390625 -4.921875 C 1.003906 -5.804688 1.609375 -6.875 2.203125 -8.125 C 2.804688 -9.382812 3.289062 -10.640625 3.65625 -11.890625 Z M 6.984375 -11.890625 "/></g></g></g><g fill="#ffffff" fill-opacity="1"><g transform="translate(229.474121, 248.60307)"><g><path d="M 1.03125 0 L 1.03125 -3.375 L 4.640625 -3.375 L 4.640625 0 Z M 1.03125 0 "/></g></g></g><g fill="#ffffff" fill-opacity="1"><g transform="translate(0.0000045, 214.38969)"><g><path d="M 29.765625 -57.40625 C 36.984375 -57.40625 42.914062 -55.941406 47.5625 -53.015625 C 52.207031 -50.085938 54.582031 -45.753906 54.6875 -40.015625 L 54.6875 -39.03125 L 37.71875 -39.03125 L 37.71875 -39.359375 C 37.71875 -40.992188 37.113281 -42.359375 35.90625 -43.453125 C 34.707031 -44.546875 32.878906 -45.09375 30.421875 -45.09375 C 28.015625 -45.09375 26.164062 -44.738281 24.875 -44.03125 C 23.59375 -43.320312 22.953125 -42.445312 22.953125 -41.40625 C 22.953125 -39.9375 23.828125 -38.84375 25.578125 -38.125 C 27.328125 -37.414062 30.144531 -36.679688 34.03125 -35.921875 C 38.570312 -34.984375 42.300781 -34.007812 45.21875 -33 C 48.144531 -31.988281 50.703125 -30.332031 52.890625 -28.03125 C 55.078125 -25.738281 56.195312 -22.628906 56.25 -18.703125 C 56.25 -12.023438 53.992188 -7.070312 49.484375 -3.84375 C 44.972656 -0.625 38.945312 0.984375 31.40625 0.984375 C 22.601562 0.984375 15.753906 -0.488281 10.859375 -3.4375 C 5.972656 -6.394531 3.53125 -11.617188 3.53125 -19.109375 L 20.65625 -19.109375 C 20.65625 -16.265625 21.394531 -14.363281 22.875 -13.40625 C 24.351562 -12.445312 26.648438 -11.96875 29.765625 -11.96875 C 32.054688 -11.96875 33.953125 -12.210938 35.453125 -12.703125 C 36.960938 -13.203125 37.71875 -14.21875 37.71875 -15.75 C 37.71875 -17.113281 36.882812 -18.132812 35.21875 -18.8125 C 33.550781 -19.5 30.832031 -20.222656 27.0625 -20.984375 C 22.46875 -21.972656 18.664062 -23 15.65625 -24.0625 C 12.65625 -25.132812 10.03125 -26.898438 7.78125 -29.359375 C 5.539062 -31.816406 4.421875 -35.148438 4.421875 -39.359375 C 4.421875 -45.535156 6.8125 -50.085938 11.59375 -53.015625 C 16.382812 -55.941406 22.441406 -57.40625 29.765625 -57.40625 Z M 29.765625 -57.40625 "/></g></g></g><g fill="#ffffff" fill-opacity="1"><g transform="translate(53.456567, 214.38969)"><g><path d="M 6.0625 -56.421875 L 54.859375 -56.421875 L 54.859375 -42.890625 L 24.1875 -42.890625 L 24.1875 -35.09375 L 50.4375 -35.09375 L 50.4375 -22.140625 L 24.1875 -22.140625 L 24.1875 -13.53125 L 55.4375 -13.53125 L 55.4375 0 L 6.0625 0 Z M 6.0625 -56.421875 "/></g></g></g><g fill="#ffffff" fill-opacity="1"><g transform="translate(106.913129, 214.38969)"><g><path d="M 46.40625 0 L 22.71875 -27.390625 L 22.71875 0 L 6.0625 0 L 6.0625 -56.421875 L 21.890625 -56.421875 L 45.59375 -28.625 L 45.59375 -56.421875 L 62.234375 -56.421875 L 62.234375 0 Z M 46.40625 0 "/></g></g></g><g fill="#ffffff" fill-opacity="1"><g transform="translate(169.470527, 214.38969)"><g><path d="M 6.0625 -56.421875 L 54.859375 -56.421875 L 54.859375 -42.890625 L 24.1875 -42.890625 L 24.1875 -35.09375 L 50.4375 -35.09375 L 50.4375 -22.140625 L 24.1875 -22.140625 L 24.1875 -13.53125 L 55.4375 -13.53125 L 55.4375 0 L 6.0625 0 Z M 6.0625 -56.421875 "/></g></g></g><g fill="#ffffff" fill-opacity="1"><g transform="translate(222.927079, 214.38969)"><g><path d="M 59.609375 -39.109375 C 59.609375 -35.671875 58.675781 -32.554688 56.8125 -29.765625 C 54.957031 -26.972656 52.253906 -24.921875 48.703125 -23.609375 L 61.25 0 L 40.921875 0 L 30.90625 -20.578125 L 24.1875 -20.578125 L 24.1875 0 L 6.0625 0 L 6.0625 -56.421875 L 40.59375 -56.421875 C 44.632812 -56.421875 48.085938 -55.640625 50.953125 -54.078125 C 53.828125 -52.515625 55.988281 -50.40625 57.4375 -47.75 C 58.882812 -45.101562 59.609375 -42.222656 59.609375 -39.109375 Z M 41.15625 -38.375 C 41.15625 -39.851562 40.664062 -41.082031 39.6875 -42.0625 C 38.707031 -43.050781 37.503906 -43.546875 36.078125 -43.546875 L 24.1875 -43.546875 L 24.1875 -33.125 L 36.078125 -33.125 C 37.503906 -33.125 38.707031 -33.628906 39.6875 -34.640625 C 40.664062 -35.648438 41.15625 -36.894531 41.15625 -38.375 Z M 41.15625 -38.375 "/></g></g></g><g fill="#ffffff" fill-opacity="1"><g transform="translate(280.975052, 214.38969)"><g><path d="M 6.890625 0 L 6.890625 -56.421875 L 25.015625 -56.421875 L 25.015625 0 Z M 6.890625 0 "/></g></g></g><g fill="#ffffff" fill-opacity="1"><g transform="translate(307.129083, 214.38969)"><g><path d="M 43.875 0 L 41.484375 -7.953125 L 21.734375 -7.953125 L 19.359375 0 L 0.8125 0 L 21.40625 -56.421875 L 42.46875 -56.421875 L 63.0625 0 Z M 25.5 -20.578125 L 37.71875 -20.578125 L 31.8125 -40.671875 L 31.484375 -40.671875 Z M 25.5 -20.578125 "/></g></g></g><g fill="#ffffff" fill-opacity="1"><g transform="translate(365.182665, 214.38969)"><g/></g></g></svg>